<svg xmlns="http://www.w3.org/2000/svg" xmlns:xlink="http://www.w3.org/1999/xlink" width="249.951" height="249.951" viewBox="0 0 1023.97 1023.97">
  <defs>
    <style>
      .cls-1 {
        fill: #fff;
        fill-rule: evenodd;
        filter: url(#filter);
      }
    </style>
    <filter id="filter" x="0" y="0" width="1023.97" height="1023.97" filterUnits="userSpaceOnUse">
      <feFlood result="flood" flood-color="#f1d6ab"/>
      <feComposite result="composite" operator="in" in2="SourceGraphic"/>
      <feBlend result="blend" in2="SourceGraphic"/>
    </filter>
  </defs>
  <path id="vk" class="cls-1" d="M669,0H354.977C68.265,0,0,68.265,0,354.979V669C0,955.709,68.265,1023.98,354.977,1023.98H669c286.7,0,354.982-68.271,354.982-354.977V354.979C1023.98,68.265,955.7,0,669,0ZM826.73,730.653H752.062c-28.479,0-36.824-22.715-87.447-73.339-44.3-42.72-63.289-48.246-74.357-48.246-15.034,0-19.528,4.248-19.528,25.59v66.951c0,18.373-5.874,29.044-53.333,29.044-79.1,0-166.031-48.03-227.73-136.62C197.119,464.305,171.811,366.215,171.811,346.441c0-11.076,4.263-21.118,25.6-21.118h74.667c19.081,0,26.255,8.352,33.415,29.029C342,460.729,403.579,553.7,428.887,553.7c9.494,0,13.85-4.378,13.85-28.487V415.264c-2.774-50.624-29.672-54.778-29.672-72.775,0-8.352,7.138-17.166,19-17.166H549.4c15.822,0,21.335,8.467,21.335,27.447V500.7c0,15.815,6.871,21.357,11.61,21.357,9.5,0,17.411-5.542,34.808-22.946,53.788-60.117,91.761-152.666,91.761-152.666,4.747-11.076,13.5-21.118,32.483-21.118h74.667c22.577,0,27.324,11.632,22.577,27.447-9.486,43.507-100.459,171.652-100.459,171.652-7.911,12.658-11.076,18.987,0,33.22,7.9,11.083,34.013,33.226,51.418,53.795,32.07,36.081,56.237,66.518,62.977,87.5C858.721,719.982,848.057,730.653,826.73,730.653Z"/>
</svg>
